<svg width="56" height="56" viewBox="0 0 56 56" fill="none" xmlns="http://www.w3.org/2000/svg">
<path d="M25.2431 20.7268C38.547 20.7268 49.3319 16.3453 49.3319 10.9405C49.3319 5.53575 38.547 1.15431 25.2431 1.15431C11.9392 1.15431 1.15431 5.53575 1.15431 10.9405C1.15431 16.3453 11.9392 20.7268 25.2431 20.7268Z" stroke="#7534FF" stroke-width="2.3"/>
<path d="M1.15492 30.5132C1.15492 30.5132 1.15492 38.1568 1.15492 43.5616C1.15492 48.9664 11.9399 53.3479 25.2434 53.3479C38.5471 53.3479 49.3331 48.9664 49.3331 43.5616C49.3331 40.8638 49.3331 30.5132 49.3331 30.5132" stroke="#7534FF" stroke-width="2.3" stroke-linecap="square"/>
<path d="M1.15492 10.9406C1.15492 10.9406 1.15492 21.8463 1.15492 27.251C1.15492 32.6558 11.9399 37.0373 25.2434 37.0373C38.5471 37.0373 49.3331 32.6558 49.3331 27.251C49.3331 24.5532 49.3331 10.9406 49.3331 10.9406" stroke="#7534FF" stroke-width="2.3"/>
</svg>
